<svg xmlns="http://www.w3.org/2000/svg" xmlns:xlink="http://www.w3.org/1999/xlink" version="1.1" viewBox="350 220 400 400" xml:space="preserve">
<g transform="matrix(1 0 0 1 469 323.5)"  >
<g style=""   >
		<g transform="matrix(1 0 0 1 25 -25.5)"  >
<path style="stroke: rgb(0,0,0); stroke-width: 2; stroke-dasharray: none; stroke-linecap: butt; stroke-dashoffset: 0; stroke-linejoin: miter; stroke-miterlimit: 4; fill: rgb(250,250,250); fill-rule: nonzero; opacity: 1;" vector-effect="non-scaling-stroke"  transform=" translate(-493, -297)" d="M 577 217 L 558 238 L 545 247 L 534 253 L 518 261 L 502 268 L 484 276 L 468 281 L 450 289 L 430 296 L 422 302 L 415 313 L 409 324 L 410 334 L 412 344 L 415 350 L 419 364 L 428 372 L 434 375 L 445 377 L 470 377 L 490 376 L 517 367 L 533 357 L 552 326 L 560 304 L 566 281 L 568 263 L 570 244 L 577 217" stroke-linecap="round" />
</g>
		<g transform="matrix(1 0 0 1 109 -101.5)"  >
<line style="stroke: rgb(0,0,0); stroke-width: 2; stroke-dasharray: none; stroke-linecap: butt; stroke-dashoffset: 0; stroke-linejoin: miter; stroke-miterlimit: 4; fill: rgb(0,0,0); fill-rule: nonzero; opacity: 1;" vector-effect="non-scaling-stroke"  x1="0" y1="0" x2="0" y2="0" />
</g>
		<g transform="matrix(1 0 0 1 34 -21.5)"  >
<line style="stroke: rgb(0,0,0); stroke-width: 4; stroke-dasharray: none; stroke-linecap: butt; stroke-dashoffset: 0; stroke-linejoin: miter; stroke-miterlimit: 4; fill: rgb(0,0,0); fill-rule: nonzero; opacity: 1;" vector-effect="non-scaling-stroke"  x1="-69" y1="72" x2="69" y2="-72" />
</g>
		<g transform="matrix(1 0 0 1 -72.5 77.5)"  >
<path style="stroke: rgb(0,0,0); stroke-width: 2; stroke-dasharray: none; stroke-linecap: butt; stroke-dashoffset: 0; stroke-linejoin: miter; stroke-miterlimit: 4; fill: none; fill-rule: nonzero; opacity: 1;" vector-effect="non-scaling-stroke"  transform=" translate(-393.5, -405)" d="M 430 377 L 368 433 L 357 418 L 430 377" stroke-linecap="round" />
</g>
</g>
</g>
</svg>