<?xml version="1.0" encoding="UTF-8" standalone="no" ?>
<!DOCTYPE svg PUBLIC "-//W3C//DTD SVG 1.1//EN" "http://www.w3.org/Graphics/SVG/1.1/DTD/svg11.dtd">
<svg xmlns="http://www.w3.org/2000/svg" xmlns:xlink="http://www.w3.org/1999/xlink" version="1.1" width="200" height="200" viewBox="0 0 200 200" xml:space="preserve">
<desc>Created with Fabric.js 4.6.0</desc>
<defs>
</defs>
<g transform="matrix(1 0 0 1 114.52 81.48)" id="U3jvEB1_ubsXXr0G91Che"  >
<path style="stroke: rgb(0,0,0); stroke-width: 2; stroke-dasharray: none; stroke-linecap: butt; stroke-dashoffset: 0; stroke-linejoin: miter; stroke-miterlimit: 4; fill-rule: nonzero; opacity: 1;" vector-effect="non-scaling-stroke"  transform=" translate(-493, -297)" d="M 577 217 L 558 238 L 545 247 L 534 253 L 518 261 L 502 268 L 484 276 L 468 281 L 450 289 L 430 296 L 422 302 L 415 313 L 409 324 L 410 334 L 412 344 L 415 350 L 419 364 L 428 372 L 434 375 L 445 377 L 470 377 L 490 376 L 517 367 L 533 357 L 552 326 L 560 304 L 566 281 L 568 263 L 570 244 L 577 217" stroke-linecap="round" />
</g>
<g transform="matrix(1 0 0 1 198.52 5.48)" id="V-yUIO6gYORxUDIEpcuo8"  >
<line style="stroke: rgb(0,0,0); stroke-width: 2; stroke-dasharray: none; stroke-linecap: butt; stroke-dashoffset: 0; stroke-linejoin: miter; stroke-miterlimit: 4; fill: rgb(0,0,0); fill-rule: nonzero; opacity: 1;" vector-effect="non-scaling-stroke"  x1="0" y1="0" x2="0" y2="0" />
</g>
<g transform="matrix(1 0 0 1 123.52 85.48)" id="Ro2W1Bm3wQBvxuSnt2oD6"  >
<line style="stroke: rgb(0,0,0); stroke-width: 1.5; stroke-dasharray: none; stroke-linecap: butt; stroke-dashoffset: 0; stroke-linejoin: miter; stroke-miterlimit: 4; fill: rgb(0,0,0); fill-rule: nonzero; opacity: 1;" vector-effect="non-scaling-stroke"  x1="-69" y1="72" x2="69" y2="-72" />
</g>
<g transform="matrix(0.74 0 0 0.74 26.35 177.32)" id="QTM_EB2k4N0qjGlpHpHMM"  >
<path style="stroke: rgb(0,0,0); stroke-width: 2; stroke-dasharray: none; stroke-linecap: butt; stroke-dashoffset: 0; stroke-linejoin: miter; stroke-miterlimit: 4; fill: none; fill-rule: nonzero; opacity: 1;" vector-effect="non-scaling-stroke"  transform=" translate(-393.5, -405)" d="M 430 377 L 368 433 L 357 418 L 430 377" stroke-linecap="round" />
</g>
</svg>